<?xml version="1.0" encoding="UTF-8"?>
<svg width="29px" height="29px" viewBox="0 0 29 29" version="1.1" xmlns="http://www.w3.org/2000/svg" xmlns:xlink="http://www.w3.org/1999/xlink">
    <title>facebook-box-fill</title>
    <g id="Page-1" stroke="none" stroke-width="1" fill="none" fill-rule="evenodd">
        <g id="Components-Overview" transform="translate(-1245.000000, -3985.000000)">
            <g id="Group-10" transform="translate(649.000000, 3969.000000)">
                <g id="Group-9" transform="translate(516.000000, 16.000000)">
                    <g id="facebook-box-fill" transform="translate(80.000000, 0.000000)">
                        <polygon id="Path" points="0 0 29 0 29 29 0 29"></polygon>
                        <path d="M18.61075,25.375 L18.61075,16.95775 L21.4297917,16.95775 L21.8515,13.6855833 L18.61075,13.6855833 L18.61075,11.5975833 C18.61075,10.65025 18.8741667,10.0037917 20.2323333,10.0037917 L21.9650833,10.0037917 L21.9650833,7.07720833 C21.1262561,6.98820809 20.2831973,6.94504671 19.4396667,6.94791667 C16.9420417,6.94791667 15.23225,8.47283333 15.23225,11.27375 L15.23225,13.6855833 L12.4071667,13.6855833 L12.4071667,16.95775 L15.23225,16.95775 L15.23225,25.375 L4.83333333,25.375 C4.16598926,25.375 3.625,24.8340107 3.625,24.1666667 L3.625,4.83333333 C3.625,4.16598926 4.16598926,3.625 4.83333333,3.625 L24.1666667,3.625 C24.8340107,3.625 25.375,4.16598926 25.375,4.83333333 L25.375,24.1666667 C25.375,24.8340107 24.8340107,25.375 24.1666667,25.375 L18.61075,25.375 Z" id="Path" fill="#2142C7" fill-rule="nonzero"></path>
                    </g>
                </g>
            </g>
        </g>
    </g>
</svg>