<?xml version="1.0" encoding="UTF-8"?>
<svg width="29px" height="29px" viewBox="0 0 29 29" version="1.1" xmlns="http://www.w3.org/2000/svg" xmlns:xlink="http://www.w3.org/1999/xlink">
    <title>linkedin-box-fill</title>
    <g id="Page-1" stroke="none" stroke-width="1" fill="none" fill-rule="evenodd">
        <g id="Components-Overview" transform="translate(-1165.000000, -3985.000000)">
            <g id="Group-10" transform="translate(649.000000, 3969.000000)">
                <g id="linkedin-box-fill" transform="translate(516.000000, 16.000000)">
                    <polygon id="Path" points="0 0 29 0 29 29 0 29"></polygon>
                    <path d="M22.1547917,22.159625 L18.9345833,22.159625 L18.9345833,17.1124167 C18.9345833,15.9089167 18.9104167,14.3598333 17.255,14.3598333 C15.576625,14.3598333 15.3204583,15.6696667 15.3204583,17.0242083 L15.3204583,22.159625 L12.0990417,22.159625 L12.0990417,11.78125 L15.192375,11.78125 L15.192375,13.195 L15.2346667,13.195 C15.66725,12.3805833 16.7185,11.5190417 18.2893333,11.5190417 C21.5518333,11.5190417 22.156,13.6674583 22.156,16.4623333 L22.156,22.159625 L22.1547917,22.159625 Z M8.46195833,10.3614599 C7.96546449,10.3621016 7.48913838,10.1650722 7.1381773,9.81388437 C6.78721622,9.46269657 6.59049447,8.98624332 6.59145481,8.48975 C6.59212589,7.45670169 7.4301181,6.6197917 8.46316641,6.62045871 C9.49621471,6.62112653 10.3331248,7.45911862 10.332458,8.49216693 C10.3317903,9.52521523 9.49379831,10.3621255 8.46075,10.3614599 L8.46195833,10.3614599 Z M10.0762917,22.159625 L6.84641667,22.159625 L6.84641667,11.78125 L10.0775,11.78125 L10.0775,22.159625 L10.0762917,22.159625 Z M23.7679167,3.625 L5.230875,3.625 C4.34154167,3.625 3.625,4.32583333 3.625,5.19220833 L3.625,23.8077917 C3.625,24.6741667 4.34275,25.375 5.22966667,25.375 L23.7630833,25.375 C24.65,25.375 25.375,24.6741667 25.375,23.8077917 L25.375,5.19220833 C25.375,4.32583333 24.65,3.625 23.7630833,3.625 L23.7667083,3.625 L23.7679167,3.625 Z" id="Shape" fill="#2142C7" fill-rule="nonzero"></path>
                </g>
            </g>
        </g>
    </g>
</svg>