<?xml version="1.0" encoding="UTF-8"?>
<svg width="227px" height="18px" viewBox="0 0 227 18" version="1.1" xmlns="http://www.w3.org/2000/svg" xmlns:xlink="http://www.w3.org/1999/xlink">
    <title>Group</title>
    <g id="Page-1" stroke="none" stroke-width="1" fill="none" fill-rule="evenodd">
        <g id="Homepage" transform="translate(-160.000000, -3273.000000)" fill="#FFFFFF">
            <g id="Group-35" transform="translate(160.000000, 3269.000000)">
                <g id="Group" transform="translate(0.000000, 4.000000)">
                    <path d="M8.5835,0.261 L8.7055,0.261 C9.2345,0.261 9.672,0.5255 10.0175,1.0545 C12.601,6.187 13.9095,8.8075 13.9435,8.916 C14.0385,9.248 14.086,9.4485 14.086,9.516 C14.086,10.1265 13.791,10.6045 13.201,10.95 C12.95,11.072 12.7025,11.133 12.4585,11.133 C11.9295,11.133 11.4855,10.8925 11.126,10.411 C11.0855,10.35 10.3635,8.9125 8.96,6.099 C8.865,6.004 8.76,5.9565 8.6445,5.9565 C8.4275,5.9565 8.2515,6.1465 8.116,6.526 L2.9085,16.8285 C2.705,17.1335 2.407,17.3505 2.0135,17.4795 C1.9595,17.493 1.912,17.5 1.871,17.5 L1.332,17.5 C1.095,17.5 0.8135,17.364 0.488,17.093 C0.1625,16.761 1.27897692e-13,16.3745 1.27897692e-13,15.9335 C1.27897692e-13,15.6285 0.2305,15.052 0.6915,14.2045 C0.6915,14.1845 2.488,10.594 6.0815,3.434 C6.868,1.8475 7.292,1.01 7.353,0.922 C7.7125,0.4815 8.1225,0.261 8.5835,0.261" id="Fill-13"></path>
                    <path d="M19.7575,14.645 L19.8775,14.645 C21.4095,14.645 22.732,14.127 23.8435,13.091 C24.305,12.6135 24.6335,12.21 24.8305,11.8805 C25.393,10.9255 25.6745,9.9805 25.6745,9.046 L25.6745,8.743 C25.6745,7.5125 25.227,6.339 24.332,5.2225 C23.1455,3.83 21.606,3.134 19.7145,3.134 L16.904,3.134 L16.904,5.4745 C16.904,6.221 16.545,6.7185 15.826,6.9675 C15.6835,6.9945 15.5615,7.008 15.46,7.008 L15.45,7.008 C14.853,7.008 14.4055,6.722 14.1075,6.1505 C14.026,5.9555 13.985,5.747 13.985,5.525 L13.985,1.7115 C13.985,1.086 14.2935,0.632 14.9105,0.3495 C15.0805,0.2825 15.2395,0.249 15.389,0.249 L20.0095,0.249 C21.8065,0.249 23.5385,0.861 25.2065,2.085 C25.464,2.28 25.827,2.616 26.295,3.0935 C27.8135,4.8155 28.573,6.702 28.573,8.753 L28.573,9.0255 C28.573,11.2045 27.7085,13.209 25.9795,15.0385 C25.2745,15.677 24.708,16.101 24.281,16.3095 C24.0505,16.464 23.6405,16.669 23.0505,16.925 C22.0065,17.308 21.159,17.5 20.508,17.5 L19.715,17.5 L19.715,17.4975 C18.98,17.491 18.4895,17.1395 18.243,16.4435 C18.216,16.3045 18.2025,16.185 18.2025,16.0855 L18.2025,16.0755 C18.2025,15.492 18.4885,15.0545 19.06,14.7625 C19.255,14.683 19.536,14.6435 19.758,14.6435 L19.7575,14.645" id="Fill-14"></path>
                    <path d="M15.416,14.593 C16.214,14.593 16.8625,15.241 16.8625,16.0395 C16.8625,16.838 16.214,17.486 15.416,17.486 C14.6175,17.486 13.9695,16.838 13.9695,16.0395 C13.9695,15.241 14.6175,14.593 15.416,14.593" id="Fill-15"></path>
                    <polygon id="Fill-16" points="42.2825 17.2795 42.8415 17.2795 42.8415 0.652 42.2825 0.652"></polygon>
                    <polyline id="Fill-17" points="52.442 0.652 52.442 1.211 58.986 1.211 58.986 17.2795 59.5445 17.2795 59.5445 1.211 66.0655 1.211 66.0655 0.652 52.442 0.652"></polyline>
                    <path d="M86.8675,0 C85.237,0 83.933,0.326 82.9085,0.978 C81.7205,1.7 81.1385,2.771 81.1385,4.1915 C81.1385,5.449 81.767,6.4505 83.048,7.149 C83.6535,7.475 84.9345,7.9175 86.8675,8.43 C88.777,8.919 90.1045,9.385 90.826,9.8275 C92.014,10.526 92.6195,11.5505 92.6195,12.8545 C92.6195,14.019 92.084,14.974 91.059,15.6725 C90.011,16.371 88.6835,16.7205 87.0535,16.7205 C85.4235,16.7205 84.1195,16.3015 83.141,15.463 C82.07,14.5315 81.4645,13.204 81.3245,11.4575 L80.789,11.4575 C80.929,13.3905 81.581,14.8575 82.7455,15.882 C83.8165,16.8135 85.2605,17.2795 87.077,17.2795 C88.8235,17.2795 90.2675,16.8835 91.385,16.1385 C92.573,15.3235 93.1785,14.2285 93.1785,12.8545 C93.1785,11.3645 92.503,10.2 91.199,9.408 C90.407,8.896 88.9865,8.3835 86.9605,7.871 C85.237,7.4055 84.096,7.033 83.537,6.7535 C82.303,6.1245 81.6975,5.263 81.6975,4.1915 C81.6975,2.9805 82.1865,2.0725 83.188,1.4435 C84.096,0.838 85.3305,0.5585 86.8675,0.5585 C88.451,0.5585 89.7085,0.9545 90.64,1.793 C91.548,2.608 92.084,3.749 92.2235,5.2395 L92.7825,5.2395 C92.6425,3.6095 92.037,2.3285 91.0125,1.397 C89.988,0.4655 88.5905,0 86.8675,0" id="Fill-18"></path>
                    <polyline id="Fill-19" points="102.313 0.652 109.0665 10.293 109.0665 17.2795 109.6255 17.2795 109.6255 10.293 116.379 0.652 115.657 0.652 109.346 9.7575 103.035 0.652 102.313 0.652"></polyline>
                    <path d="M131.126,0 C129.496,0 128.1915,0.326 127.167,0.978 C125.9795,1.7 125.397,2.771 125.397,4.1915 C125.397,5.449 126.026,6.4505 127.307,7.149 C127.9125,7.475 129.193,7.9175 131.126,8.43 C133.0355,8.919 134.363,9.385 135.085,9.8275 C136.2725,10.526 136.878,11.5505 136.878,12.8545 C136.878,14.019 136.3425,14.974 135.318,15.6725 C134.27,16.371 132.9425,16.7205 131.3125,16.7205 C129.682,16.7205 128.378,16.3015 127.4,15.463 C126.3285,14.5315 125.723,13.204 125.5835,11.4575 L125.048,11.4575 C125.1875,13.3905 125.8395,14.8575 127.004,15.882 C128.0755,16.8135 129.519,17.2795 131.3355,17.2795 C133.082,17.2795 134.526,16.8835 135.644,16.1385 C136.8315,15.3235 137.437,14.2285 137.437,12.8545 C137.437,11.3645 136.7615,10.2 135.4575,9.408 C134.666,8.896 133.245,8.3835 131.219,7.871 C129.496,7.4055 128.3545,7.033 127.796,6.7535 C126.5615,6.1245 125.956,5.263 125.956,4.1915 C125.956,2.9805 126.445,2.0725 127.4465,1.4435 C128.3545,0.838 129.589,0.5585 131.126,0.5585 C132.7095,0.5585 133.967,0.9545 134.8985,1.793 C135.807,2.608 136.3425,3.749 136.482,5.2395 L137.041,5.2395 C136.9015,3.6095 136.296,2.3285 135.2715,1.397 C134.2465,0.4655 132.8495,0 131.126,0" id="Fill-20"></path>
                    <polyline id="Fill-21" points="146.106 0.652 146.106 1.211 152.65 1.211 152.65 17.2795 153.209 17.2795 153.209 1.211 159.7295 1.211 159.7295 0.652 146.106 0.652"></polyline>
                    <polyline id="Fill-22" points="168.3985 0.652 168.3985 17.2795 180.2285 17.2795 180.2285 16.7205 168.9575 16.7205 168.9575 8.896 179.297 8.896 179.297 8.337 168.9575 8.337 168.9575 1.211 179.8325 1.211 179.8325 0.652 168.3985 0.652"></polyline>
                    <polyline id="Fill-23" points="188.8975 0.652 188.8975 17.2795 189.4565 17.2795 189.4565 1.141 189.5265 1.141 196.6525 17.2795 197.3745 17.2795 204.5005 1.141 204.5705 1.141 204.5705 17.2795 205.1295 17.2795 205.1295 0.652 204.1045 0.652 197.0485 16.674 197.002 16.674 189.922 0.652 188.8975 0.652"></polyline>
                    <path d="M219.8765,0 C218.246,0 216.942,0.326 215.9175,0.978 C214.7295,1.7 214.1475,2.771 214.1475,4.1915 C214.1475,5.449 214.7765,6.4505 216.057,7.149 C216.6625,7.475 217.9435,7.9175 219.8765,8.43 C221.786,8.919 223.1135,9.385 223.8355,9.8275 C225.023,10.526 225.6285,11.5505 225.6285,12.8545 C225.6285,14.019 225.093,14.974 224.068,15.6725 C223.02,16.371 221.693,16.7205 220.0625,16.7205 C218.4325,16.7205 217.1285,16.3015 216.1505,15.463 C215.079,14.5315 214.4735,13.204 214.334,11.4575 L213.798,11.4575 C213.938,13.3905 214.59,14.8575 215.7545,15.882 C216.8255,16.8135 218.2695,17.2795 220.086,17.2795 C221.8325,17.2795 223.2765,16.8835 224.394,16.1385 C225.582,15.3235 226.1875,14.2285 226.1875,12.8545 C226.1875,11.3645 225.512,10.2 224.208,9.408 C223.416,8.896 221.9955,8.3835 219.9695,7.871 C218.246,7.4055 217.105,7.033 216.546,6.7535 C215.312,6.1245 214.7065,5.263 214.7065,4.1915 C214.7065,2.9805 215.1955,2.0725 216.197,1.4435 C217.105,0.838 218.3395,0.5585 219.8765,0.5585 C221.46,0.5585 222.7175,0.9545 223.649,1.793 C224.557,2.608 225.093,3.749 225.2325,5.2395 L225.7915,5.2395 C225.652,3.6095 225.0465,2.3285 224.0215,1.397 C222.997,0.4655 221.5995,0 219.8765,0" id="Fill-24"></path>
                </g>
            </g>
        </g>
    </g>
</svg>