<?xml version="1.0" encoding="UTF-8"?>
<svg width="22px" height="22px" viewBox="0 0 22 22" version="1.1" xmlns="http://www.w3.org/2000/svg" xmlns:xlink="http://www.w3.org/1999/xlink">
    <title>Group 15</title>
    <g id="Page-1" stroke="none" stroke-width="1" fill="none" fill-rule="evenodd">
        <g id="Homepage---11″-iPad-Pro" transform="translate(-59.000000, -2608.000000)">
            <g id="Group-35" transform="translate(59.000000, 2472.000000)">
                <g id="Group-30" transform="translate(0.000000, 14.000000)">
                    <g id="Group-29" transform="translate(0.000000, 82.000000)">
                        <g id="Group-16-Copy" transform="translate(0.000000, 37.000000)">
                            <g id="emails-letter-mail.1" transform="translate(0.000000, 3.000000)">
                                <g id="Group" stroke-linecap="round" stroke-linejoin="round" transform="translate(2.736000, 4.560000)" stroke="#FFFFFF" stroke-width="1.152">
                                    <path d="M14.592,12.750672 L1.824,12.750672 C0.81624,12.750672 0,11.934432 0,10.926672 L0,1.841328 C0,0.833568 0.81624,0.017328 1.824,0.017328 L14.592,0.017328 C15.59976,0.017328 16.416,0.833568 16.416,1.841328 L16.416,10.927584 C16.416,11.934432 15.59976,12.750672 14.592,12.750672 L14.592,12.750672 Z" id="Path"></path>
                                    <polyline id="Path" points="12.768 3.648 8.208 6.384 3.648 3.648"></polyline>
                                </g>
                                <polygon id="Path" points="0 0 21.888 0 21.888 21.888 0 21.888"></polygon>
                            </g>
                        </g>
                    </g>
                </g>
            </g>
        </g>
    </g>
</svg>