<?xml version="1.0" encoding="UTF-8"?>
<svg width="49px" height="49px" viewBox="0 0 49 49" version="1.1" xmlns="http://www.w3.org/2000/svg" xmlns:xlink="http://www.w3.org/1999/xlink">
    <title>Group 15</title>
    <g id="Page-1" stroke="none" stroke-width="1" fill="none" fill-rule="evenodd">
        <g id="Homepage" transform="translate(-829.000000, -1543.000000)">
            <g id="Group-17" transform="translate(829.000000, 1383.000000)">
                <g id="Group-15" transform="translate(0.000000, 160.000000)">
                    <circle id="Oval" fill-opacity="0.0535333807" fill="#1249C1" cx="24.5" cy="24.5" r="24.5"></circle>
                    <g id="emails-letter-mail.1" transform="translate(6.000000, 6.000000)">
                        <g id="Group" stroke-linecap="round" stroke-linejoin="round" transform="translate(4.560000, 7.600000)" stroke="#2041C7" stroke-width="1.92">
                            <path d="M24.32,21.25112 L3.04,21.25112 C1.3604,21.25112 0,19.89072 0,18.21112 L0,3.06888 C0,1.38928 1.3604,0.02888 3.04,0.02888 L24.32,0.02888 C25.9996,0.02888 27.36,1.38928 27.36,3.06888 L27.36,18.21264 C27.36,19.89072 25.9996,21.25112 24.32,21.25112 L24.32,21.25112 Z" id="Path"></path>
                            <polyline id="Path" points="21.28 6.08 13.68 10.64 6.08 6.08"></polyline>
                        </g>
                        <polygon id="Path" points="0 0 36.48 0 36.48 36.48 0 36.48"></polygon>
                    </g>
                </g>
            </g>
        </g>
    </g>
</svg>