<?xml version="1.0" encoding="UTF-8"?>
<svg width="80px" height="80px" viewBox="0 0 80 80" version="1.1" xmlns="http://www.w3.org/2000/svg" xmlns:xlink="http://www.w3.org/1999/xlink">
    <title>Group 11</title>
    <g id="Page-1" stroke="none" stroke-width="1" fill="none" fill-rule="evenodd">
        <g id="Homepage" transform="translate(-230.000000, -1079.000000)">
            <g id="Group-14" transform="translate(160.000000, 1048.000000)">
                <g id="Group-12" transform="translate(58.000000, 31.000000)">
                    <g id="Group-11" transform="translate(12.000000, 0.000000)">
                        <path d="M40,80 C62.09139,80 80,62.09139 80,40 C80,36.6631673 79.5914129,33.4217652 78.8215399,30.323095 C74.4944946,12.9071223 58.7545573,0 40,0 C17.90861,0 0,17.90861 0,40 C0,62.09139 17.90861,80 40,80 Z" id="Oval" fill-opacity="0.0535333807" fill="#1249C1"></path>
                        <g id="cloud-sync-synchronize-server" transform="translate(17.000000, 17.000000)">
                            <polygon id="Path" points="0 0 46.08 0 46.08 46.08 0 46.08"></polygon>
                            <line x1="26.4" y1="38.4" x2="38.4" y2="38.4" id="Path" stroke="#2041C7" stroke-width="2.4" stroke-linecap="round" stroke-linejoin="round"></line>
                            <line x1="7.68" y1="38.4" x2="19.68" y2="38.4" id="Path" stroke="#2041C7" stroke-width="2.4" stroke-linecap="round" stroke-linejoin="round"></line>
                            <path d="M23.04,35.04 C24.89472,35.04 26.4,36.54336 26.4,38.4 C26.4,40.25472 24.89664,41.76 23.04,41.76 C21.18528,41.76 19.68,40.25664 19.68,38.4 C19.68,36.54528 21.18528,35.04 23.04,35.04" id="Path" stroke="#2041C7" stroke-width="2.4" stroke-linecap="round" stroke-linejoin="round"></path>
                            <path d="M23.04384,5.76 C17.63328,5.76 13.24992,10.14336 13.24992,15.55392 C9.64416,15.55392 6.72192,18.47616 6.72192,22.08192 C6.72192,25.68768 9.64416,28.60992 13.24992,28.60992 L31.2,28.60992 C35.70624,28.60992 39.36,24.95616 39.36,20.44992 C39.36,16.32192 36.28224,12.94464 32.30208,12.40128 C30.99072,8.54016 27.34272,5.76 23.04384,5.76 Z" id="Path" stroke="#2041C7" stroke-width="2.4" stroke-linecap="round" stroke-linejoin="round"></path>
                            <line x1="23.04" y1="28.60992" x2="23.04" y2="35.04" id="Path" stroke="#2041C7" stroke-width="2.4" stroke-linecap="round" stroke-linejoin="round"></line>
                        </g>
                    </g>
                </g>
            </g>
        </g>
    </g>
</svg>