<?xml version="1.0" encoding="UTF-8"?>
<svg width="80px" height="80px" viewBox="0 0 80 80" version="1.1" xmlns="http://www.w3.org/2000/svg" xmlns:xlink="http://www.w3.org/1999/xlink">
    <title>Group 11</title>
    <g id="Page-1" stroke="none" stroke-width="1" fill="none" fill-rule="evenodd">
        <g id="Homepage" transform="translate(-732.000000, -1079.000000)">
            <g id="Group-14" transform="translate(160.000000, 1048.000000)">
                <g id="Group-13-Copy-3" transform="translate(502.000000, 0.000000)">
                    <g id="Group-12" transform="translate(56.000000, 31.000000)">
                        <g id="Group-11" transform="translate(14.000000, 0.000000)">
                            <circle id="Oval" fill-opacity="0.0535333807" fill="#1249C1" cx="40" cy="40" r="40"></circle>
                            <g id="cloud-sync-synchronize.2" transform="translate(16.000000, 16.000000)">
                                <polygon id="Path" points="0 0 48 0 48 48 0 48"></polygon>
                                <g id="a-link" stroke-linecap="round" stroke-linejoin="round" transform="translate(36.000000, 36.000000)" stroke="#2041C7" stroke-width="2.4">
                                    <path d="M6,0 C6,3.314 3.314,6 0,6" id="a"></path>
                                </g>
                                <g id="a-link" stroke-linecap="round" stroke-linejoin="round" transform="translate(36.000000, 36.000000)" stroke="#2041C7" stroke-width="2.4">
                                    <path d="M6,0 C6,3.314 3.314,6 0,6" id="a"></path>
                                </g>
                                <path d="M18.324,20.596 C15.884,20.928 14,22.998 14,25.528 C14,28.29 16.24,30.528 19,30.528 L30,30.528 C32.21,30.528 34,28.738 34,26.528 C34,24.318 32.21,22.528 30,22.528 C30,19.214 27.314,16.528 24,16.528 C21.364,16.528 19.128,18.232 18.324,20.596 L18.324,20.596 Z" id="Path" stroke="#2041C7" stroke-width="2.4" stroke-linecap="round" stroke-linejoin="round"></path>
                                <g id="b-link" stroke-linecap="round" stroke-linejoin="round" transform="translate(6.000000, 6.000000)" stroke="#2041C7" stroke-width="2.4">
                                    <path d="M0,6 C0,2.686 2.686,0 6,0" id="b"></path>
                                </g>
                                <g id="b-link" stroke-linecap="round" stroke-linejoin="round" transform="translate(6.000000, 6.000000)" stroke="#2041C7" stroke-width="2.4">
                                    <path d="M0,6 C0,2.686 2.686,0 6,0" id="b"></path>
                                </g>
                                <path d="M12,42 C8.686,42 6,39.314 6,36" id="Path" stroke="#2041C7" stroke-width="2.4" stroke-linecap="round" stroke-linejoin="round"></path>
                                <path d="M36,6 C39.314,6 42,8.686 42,12" id="Path" stroke="#2041C7" stroke-width="2.4" stroke-linecap="round" stroke-linejoin="round"></path>
                                <line x1="6" y1="27.25" x2="6" y2="29.75" id="Path" stroke="#2041C7" stroke-width="2.4" stroke-linecap="round" stroke-linejoin="round"></line>
                                <line x1="6" y1="18.25" x2="6" y2="20.75" id="Path" stroke="#2041C7" stroke-width="2.4" stroke-linecap="round" stroke-linejoin="round"></line>
                                <line x1="42" y1="20.75" x2="42" y2="18.25" id="Path" stroke="#2041C7" stroke-width="2.4" stroke-linecap="round" stroke-linejoin="round"></line>
                                <line x1="42" y1="29.75" x2="42" y2="27.25" id="Path" stroke="#2041C7" stroke-width="2.4" stroke-linecap="round" stroke-linejoin="round"></line>
                                <line x1="27.25" y1="42" x2="29.75" y2="42" id="Path" stroke="#2041C7" stroke-width="2.4" stroke-linecap="round" stroke-linejoin="round"></line>
                                <line x1="18.25" y1="42" x2="20.75" y2="42" id="Path" stroke="#2041C7" stroke-width="2.4" stroke-linecap="round" stroke-linejoin="round"></line>
                                <line x1="20.75" y1="6" x2="18.25" y2="6" id="Path" stroke="#2041C7" stroke-width="2.4" stroke-linecap="round" stroke-linejoin="round"></line>
                                <line x1="29.75" y1="6" x2="27.25" y2="6" id="Path" stroke="#2041C7" stroke-width="2.4" stroke-linecap="round" stroke-linejoin="round"></line>
                            </g>
                        </g>
                    </g>
                </g>
            </g>
        </g>
    </g>
</svg>