<?xml version="1.0" encoding="UTF-8"?>
<svg width="80px" height="80px" viewBox="0 0 80 80" version="1.1" xmlns="http://www.w3.org/2000/svg" xmlns:xlink="http://www.w3.org/1999/xlink">
    <title>Group 11</title>
    <g id="Page-1" stroke="none" stroke-width="1" fill="none" fill-rule="evenodd">
        <g id="Homepage" transform="translate(-481.000000, -1079.000000)">
            <g id="Group-14" transform="translate(160.000000, 1048.000000)">
                <g id="Group-13-Copy" transform="translate(251.000000, 0.000000)">
                    <g id="Group-12" transform="translate(54.000000, 31.000000)">
                        <g id="Group-11" transform="translate(16.000000, 0.000000)">
                            <circle id="Oval" fill-opacity="0.0535333807" fill="#1249C1" cx="40" cy="40" r="40"></circle>
                            <g id="protection-01" transform="translate(16.000000, 16.000000)">
                                <g id="Group" stroke-linecap="round" stroke-linejoin="round" transform="translate(4.000000, 6.000000)" stroke="#2041C7" stroke-width="2.4">
                                    <path d="M23.446,28 L23.446,25.446 C23.446,23.638 21.904,22 20,22 C18.096,22 16.554,23.542 16.554,25.446 L16.554,28" id="Path"></path>
                                    <path d="M24.052,36 L15.948,36 C14.872,36 14,35.128 14,34.052 L14,29.948 C14,28.872 14.872,28 15.948,28 L24.052,28 C25.128,28 26,28.872 26,29.948 L26,34.052 C26,35.128 25.128,36 24.052,36 Z" id="Path"></path>
                                    <path d="M34,28 C37.462,26.956 40,23.782 40,19.982 C40,15.336 36.23,11.568 31.578,11.568 C31.578,5.18 26.394,-1.77635684e-15 20,-1.77635684e-15 C13.606,-1.77635684e-15 8.422,5.18 8.422,11.568 C3.77,11.568 3.55271368e-15,15.336 3.55271368e-15,19.982 C3.55271368e-15,23.782 2.538,26.956 6,28" id="Path"></path>
                                </g>
                                <polygon id="Path" points="0 0 48 0 48 48 0 48"></polygon>
                            </g>
                        </g>
                    </g>
                </g>
            </g>
        </g>
    </g>
</svg>