<?xml version="1.0" encoding="UTF-8"?>
<svg width="49px" height="49px" viewBox="0 0 49 49" version="1.1" xmlns="http://www.w3.org/2000/svg" xmlns:xlink="http://www.w3.org/1999/xlink">
    <title>Group 15</title>
    <g id="Page-1" stroke="none" stroke-width="1" fill="none" fill-rule="evenodd">
        <g id="Homepage" transform="translate(-829.000000, -1479.000000)">
            <g id="Group-17" transform="translate(829.000000, 1383.000000)">
                <g id="Group-15" transform="translate(0.000000, 96.000000)">
                    <circle id="Oval" fill-opacity="0.0535333807" fill="#1249C1" cx="24.5" cy="24.5" r="24.5"></circle>
                    <g id="phones-04" transform="translate(6.000000, 6.000000)">
                        <g id="Group" stroke-linecap="round" stroke-linejoin="round" transform="translate(3.840000, 3.840000)" stroke="#2041C7" stroke-width="1.92">
                            <path d="M11.43296,17.24088 C9.65456,15.46248 8.31392,13.47128 7.4232,11.4512 C7.23472,11.02408 7.34568,10.524 7.67552,10.19416 L8.9204,8.94928 C9.94032,7.92936 9.94032,6.48688 9.0496,5.59616 L7.26512,3.8132 C6.078,2.62608 4.15368,2.62608 2.96656,3.8132 L1.97552,4.80272 C0.8492,5.92904 0.37952,7.55392 0.68352,9.16512 C1.4344,13.13688 3.74176,17.4856 7.46424,21.20808 C11.18672,24.93056 15.53544,27.23792 19.5072,27.9888 C21.1184,28.2928 22.74328,27.82312 23.8696,26.6968 L24.85912,25.70728 C26.04624,24.52016 26.04624,22.59584 24.85912,21.40872 L23.07616,19.62576 C22.18544,18.73504 20.74144,18.73504 19.85224,19.62576 L18.47968,20.99984 C18.14984,21.32968 17.64976,21.44064 17.22264,21.25216 C15.20256,20.35992 13.21136,19.01776 11.43296,17.24088 Z" id="Path"></path>
                            <line x1="15.7984" y1="4.0184" x2="15.7984" y2="0.4616" id="Path"></line>
                            <line x1="22.1368" y1="6.5264" x2="24.6448" y2="4.0336" id="Path"></line>
                            <line x1="24.66" y1="12.88" x2="28.2016" y2="12.88" id="Path"></line>
                        </g>
                        <polygon id="Path" points="0 0 36.48 0 36.48 36.48 0 36.48"></polygon>
                    </g>
                </g>
            </g>
        </g>
    </g>
</svg>