<?xml version="1.0" encoding="UTF-8"?>
<svg width="22px" height="22px" viewBox="0 0 22 22" version="1.1" xmlns="http://www.w3.org/2000/svg" xmlns:xlink="http://www.w3.org/1999/xlink">
    <title>Group 15</title>
    <g id="Page-1" stroke="none" stroke-width="1" fill="none" fill-rule="evenodd">
        <g id="Homepage---11″-iPad-Pro" transform="translate(-59.000000, -2571.000000)">
            <g id="Group-35" transform="translate(59.000000, 2472.000000)">
                <g id="Group-30" transform="translate(0.000000, 14.000000)">
                    <g id="Group-29" transform="translate(0.000000, 82.000000)">
                        <g id="phones-04" transform="translate(0.000000, 3.000000)">
                            <g id="Group" stroke-linecap="round" stroke-linejoin="round" transform="translate(2.304000, 2.304000)" stroke="#FFFFFF" stroke-width="1.152">
                                <path d="M6.859776,10.344528 C5.792736,9.277488 4.988352,8.082768 4.45392,6.87072 C4.340832,6.614448 4.407408,6.3144 4.605312,6.116496 L5.35224,5.369568 C5.964192,4.757616 5.964192,3.892128 5.42976,3.357696 L4.359072,2.28792 C3.6468,1.575648 2.492208,1.575648 1.779936,2.28792 L1.185312,2.881632 C0.50952,3.557424 0.227712,4.532352 0.410112,5.499072 C0.86064,7.882128 2.245056,10.49136 4.478544,12.724848 C6.712032,14.958336 9.321264,16.342752 11.70432,16.79328 C12.67104,16.97568 13.645968,16.693872 14.32176,16.01808 L14.915472,15.424368 C15.627744,14.712096 15.627744,13.557504 14.915472,12.845232 L13.845696,11.775456 C13.311264,11.241024 12.444864,11.241024 11.911344,11.775456 L11.087808,12.599904 C10.889904,12.797808 10.589856,12.864384 10.333584,12.751296 C9.121536,12.215952 7.926816,11.410656 6.859776,10.344528 Z" id="Path"></path>
                                <line x1="9.47904" y1="2.41104" x2="9.47904" y2="0.27696" id="Path"></line>
                                <line x1="13.28208" y1="3.91584" x2="14.78688" y2="2.42016" id="Path"></line>
                                <line x1="14.796" y1="7.728" x2="16.92096" y2="7.728" id="Path"></line>
                            </g>
                            <polygon id="Path" points="0 0 21.888 0 21.888 21.888 0 21.888"></polygon>
                        </g>
                    </g>
                </g>
            </g>
        </g>
    </g>
</svg>