<?xml version="1.0" encoding="UTF-8"?>
<svg width="29px" height="29px" viewBox="0 0 29 29" version="1.1" xmlns="http://www.w3.org/2000/svg" xmlns:xlink="http://www.w3.org/1999/xlink">
    <title>twitter-fill</title>
    <g id="Page-1" stroke="none" stroke-width="1" fill="none" fill-rule="evenodd">
        <g id="Components-Overview" transform="translate(-1205.000000, -3985.000000)">
            <g id="Group-10" transform="translate(649.000000, 3969.000000)">
                <g id="Group-9" transform="translate(516.000000, 16.000000)">
                    <g id="twitter-fill" transform="translate(40.000000, 0.000000)">
                        <polygon id="Path" points="0 0 29 0 29 29 0 29"></polygon>
                        <path d="M26.7790833,6.83433333 C25.8565897,7.24237992 24.8783268,7.51036367 23.8766667,7.62941667 C24.9324489,6.99798193 25.7226441,6.00422552 26.1,4.83333333 C25.1091667,5.423 24.022875,5.83625 22.8906667,6.05979167 C21.3269015,4.38663608 18.8334187,3.97431592 16.8142801,5.05500562 C14.7951414,6.13569532 13.7552181,8.43917612 14.2800833,10.668375 C10.2164856,10.4647023 6.43044053,8.54532678 3.86425,5.38795833 C3.41510056,6.15941913 3.1790708,7.03639896 3.18033333,7.92908333 C3.18033333,9.68116667 4.07208333,11.2290417 5.42783333,12.1352917 C4.62551065,12.1100329 3.84084748,11.8933598 3.13925,11.5033333 L3.13925,11.5661667 C3.13974927,13.9720016 4.83516325,16.0443988 7.19320833,16.5215417 C6.44840983,16.7233779 5.66745391,16.7531286 4.90945833,16.6085417 C5.5705701,18.6677629 7.46804547,20.0786065 9.63041667,20.11875 C7.51334608,21.7814401 4.82214416,22.5343333 2.149625,22.2115833 C4.45959316,23.6971479 7.14861699,24.4858164 9.89504167,24.4832562 C19.19075,24.4832562 24.2742083,16.7825417 24.2742083,10.1040833 C24.2742083,9.88658333 24.2681667,9.66666667 24.2585,9.45158333 C25.2479608,8.73645259 26.1019318,7.8505651 26.7802917,6.83554167 L26.7790833,6.83433333 Z" id="Path" fill="#2142C7" fill-rule="nonzero"></path>
                    </g>
                </g>
            </g>
        </g>
    </g>
</svg>