<?xml version="1.0" encoding="UTF-8"?>
<svg width="265px" height="22px" viewBox="0 0 265 22" version="1.1" xmlns="http://www.w3.org/2000/svg" xmlns:xlink="http://www.w3.org/1999/xlink">
    <title>Group 2</title>
    <g id="Page-1" stroke="none" stroke-width="1" fill="none" fill-rule="evenodd">
        <g id="Homepage" transform="translate(-160.000000, -37.000000)" fill="#FFFFFF">
            <g id="Group" transform="translate(160.000000, 38.000000)">
                <path d="M10.0203855,0.3045 L10.1628084,0.3045 C10.7803634,0.3045 11.2911013,0.613083333 11.6944383,1.23025 C14.7104185,7.21816667 16.2379626,10.2754167 16.2776542,10.402 C16.3885573,10.7893333 16.4440088,11.02325 16.4440088,11.102 C16.4440088,11.81425 16.0996256,12.3719167 15.410859,12.775 C15.1178414,12.9173333 14.8289097,12.9885 14.5440639,12.9885 C13.9265088,12.9885 13.4081828,12.7079167 12.9885022,12.1461667 C12.9412225,12.075 12.098359,10.3979167 10.4599119,7.1155 C10.3490088,7.00466667 10.2264317,6.94925 10.0915969,6.94925 C9.83827093,6.94925 9.63280837,7.17091667 9.47462555,7.61366667 L3.39538546,19.63325 C3.15781938,19.9890833 2.80993392,20.24225 2.35056167,20.39275 C2.28752203,20.4085 2.23207048,20.4166667 2.18420705,20.4166667 L1.55497797,20.4166667 C1.27830396,20.4166667 0.949680617,20.258 0.56969163,19.9418333 C0.189702643,19.5545 1.49307879e-13,19.1035833 1.49307879e-13,18.5890833 C1.49307879e-13,18.23325 0.269085903,17.5606667 0.807257709,16.5719167 C0.807257709,16.5485833 2.90449339,12.3596667 7.09954846,4.00633333 C8.01770925,2.15541667 8.51268722,1.17833333 8.58389868,1.07566667 C9.0035793,0.56175 9.48221366,0.3045 10.0203855,0.3045" id="Fill-13"></path>
                <path d="M23.0649229,17.0858333 L23.205011,17.0858333 C24.9934692,17.0858333 26.5373568,16.4815 27.8349229,15.2728333 C28.3736784,14.71575 28.7571696,14.245 28.9871476,13.8605833 C29.6438106,12.7464167 29.9724339,11.6439167 29.9724339,10.5536667 L29.9724339,10.2001667 C29.9724339,8.76458333 29.450022,7.3955 28.4051982,6.09291667 C27.0200771,4.46833333 25.2228634,3.65633333 23.0147247,3.65633333 L19.7337445,3.65633333 L19.7337445,6.38691667 C19.7337445,7.25783333 19.3146476,7.83825 18.4752863,8.12875 C18.3089317,8.16025 18.1665088,8.176 18.0480176,8.176 L18.0363436,8.176 C17.3394053,8.176 16.8169934,7.84233333 16.4691079,7.17558333 C16.3739648,6.94808333 16.3261013,6.70483333 16.3261013,6.44583333 L16.3261013,1.99675 C16.3261013,1.267 16.6862445,0.737333333 17.4065308,0.40775 C17.604989,0.329583333 17.7906057,0.2905 17.9651322,0.2905 L23.3591079,0.2905 C25.4569273,0.2905 27.4788656,1.0045 29.4260903,2.4325 C29.726696,2.66 30.1504626,3.052 30.6968062,3.60908333 C32.4695044,5.61808333 33.3561454,7.819 33.3561454,10.2118333 L33.3561454,10.52975 C33.3561454,13.0719167 32.3469273,15.4105 30.3284912,17.5449167 C29.5054736,18.2898333 28.844141,18.7845 28.3456608,19.02775 C28.0765749,19.208 27.5979405,19.4471667 26.909174,19.7458333 C25.6904075,20.1926667 24.7010352,20.4166667 23.9410573,20.4166667 L23.0153084,20.4166667 L23.0153084,20.41375 C22.1572687,20.4061667 21.5846586,19.9960833 21.2968943,19.1840833 C21.2653744,19.0219167 21.2496145,18.8825 21.2496145,18.7664167 L21.2496145,18.75475 C21.2496145,18.074 21.5834912,17.5635833 22.2506608,17.2229167 C22.478304,17.1301667 22.8063436,17.0840833 23.0655066,17.0840833 L23.0649229,17.0858333" id="Fill-14"></path>
                <path d="M17.996652,17.0251667 C18.9282379,17.0251667 19.6852974,17.7811667 19.6852974,18.71275 C19.6852974,19.6443333 18.9282379,20.4003333 17.996652,20.4003333 C17.0644824,20.4003333 16.3080066,19.6443333 16.3080066,18.71275 C16.3080066,17.7811667 17.0644824,17.0251667 17.996652,17.0251667" id="Fill-15"></path>
                <polygon id="Fill-16" stroke="#FFFFFF" points="49.3606278 20.1594167 50.0132048 20.1594167 50.0132048 0.760666667 49.3606278 0.760666667"></polygon>
                <polyline id="Fill-17" stroke="#FFFFFF" points="61.220837 0.760666667 61.220837 1.41283333 68.8603084 1.41283333 68.8603084 20.1594167 69.5123018 20.1594167 69.5123018 1.41283333 77.1249229 1.41283333 77.1249229 0.760666667 61.220837 0.760666667"></polyline>
                <path d="M101.409196,0 C99.5057489,0 97.9834581,0.380333333 96.7874559,1.141 C95.4005837,1.98333333 94.7211564,3.23283333 94.7211564,4.89008333 C94.7211564,6.35716667 95.4548678,7.52558333 96.9503084,8.3405 C97.6571696,8.72083333 99.1526101,9.23708333 101.409196,9.835 C103.638348,10.4055 105.188073,10.9491667 106.030352,11.4654167 C107.417225,12.2803333 108.124086,13.4755833 108.124086,14.9969167 C108.124086,16.3555 107.498943,17.4696667 106.302357,18.2845833 C105.078921,19.0995 103.529196,19.50725 101.626333,19.50725 C99.7234692,19.50725 98.2011784,19.0184167 97.0588767,18.0401667 C95.8085903,16.9534167 95.1017291,15.4046667 94.938293,13.3670833 L94.3131498,13.3670833 C94.4765859,15.62225 95.2377313,17.33375 96.5971696,18.529 C97.8474559,19.61575 99.5331828,20.1594167 101.653767,20.1594167 C103.692632,20.1594167 105.378359,19.6974167 106.68293,18.82825 C108.069802,17.8774167 108.776663,16.5999167 108.776663,14.9969167 C108.776663,13.2585833 107.988084,11.9 106.465793,10.976 C105.541211,10.3786667 103.882919,9.78075 101.517764,9.18283333 C99.5057489,8.63975 98.1737445,8.20516667 97.5211674,7.87908333 C96.0805947,7.14525 95.3737335,6.14016667 95.3737335,4.89008333 C95.3737335,3.47725 95.9445925,2.41791667 97.1137445,1.68408333 C98.1737445,0.977666667 99.6149009,0.651583333 101.409196,0.651583333 C103.257775,0.651583333 104.725782,1.11358333 105.813216,2.09183333 C106.873216,3.04266667 107.498943,4.37383333 107.661795,6.11275 L108.314372,6.11275 C108.150936,4.21108333 107.444075,2.71658333 106.248073,1.62983333 C105.05207,0.543083333 103.420628,0 101.409196,0" id="Fill-18" stroke="#FFFFFF"></path>
                <polyline id="Fill-19" stroke="#FFFFFF" points="119.440286 0.760666667 127.324328 12.0085 127.324328 20.1594167 127.976905 20.1594167 127.976905 12.0085 135.860947 0.760666667 135.018084 0.760666667 127.650617 11.38375 120.28315 0.760666667 119.440286 0.760666667"></polyline>
                <path d="M153.076608,0 C151.173744,0 149.65087,0.380333333 148.454868,1.141 C147.068579,1.98333333 146.388568,3.23283333 146.388568,4.89008333 C146.388568,6.35716667 147.122863,7.52558333 148.618304,8.3405 C149.325165,8.72083333 150.820022,9.23708333 153.076608,9.835 C155.30576,10.4055 156.855485,10.9491667 157.698348,11.4654167 C159.084637,12.2803333 159.791498,13.4755833 159.791498,14.9969167 C159.791498,16.3555 159.166355,17.4696667 157.970352,18.2845833 C156.746916,19.0995 155.197192,19.50725 153.294328,19.50725 C151.390881,19.50725 149.86859,19.0184167 148.726872,18.0401667 C147.476002,16.9534167 146.769141,15.4046667 146.606289,13.3670833 L145.981145,13.3670833 C146.143998,15.62225 146.905143,17.33375 148.264581,18.529 C149.515452,19.61575 151.200595,20.1594167 153.321178,20.1594167 C155.360044,20.1594167 157.045771,19.6974167 158.350925,18.82825 C159.737214,17.8774167 160.444075,16.5999167 160.444075,14.9969167 C160.444075,13.2585833 159.655496,11.9 158.133205,10.976 C157.209207,10.3786667 155.55033,9.78075 153.185176,9.18283333 C151.173744,8.63975 149.841156,8.20516667 149.189163,7.87908333 C147.748007,7.14525 147.041145,6.14016667 147.041145,4.89008333 C147.041145,3.47725 147.612004,2.41791667 148.781156,1.68408333 C149.841156,0.977666667 151.282313,0.651583333 153.076608,0.651583333 C154.925187,0.651583333 156.393194,1.11358333 157.480628,2.09183333 C158.541211,3.04266667 159.166355,4.37383333 159.329207,6.11275 L159.981784,6.11275 C159.818932,4.21108333 159.11207,2.71658333 157.916068,1.62983333 C156.719482,0.543083333 155.088623,0 153.076608,0" id="Fill-20" stroke="#FFFFFF"></path>
                <polyline id="Fill-21" stroke="#FFFFFF" points="170.564273 0.760666667 170.564273 1.41283333 178.203744 1.41283333 178.203744 20.1594167 178.856322 20.1594167 178.856322 1.41283333 186.468359 1.41283333 186.468359 0.760666667 170.564273 0.760666667"></polyline>
                <polyline id="Fill-22" stroke="#FFFFFF" points="196.588557 0.760666667 196.588557 20.1594167 210.39891 20.1594167 210.39891 19.50725 197.241134 19.50725 197.241134 10.3786667 209.311476 10.3786667 209.311476 9.7265 197.241134 9.7265 197.241134 1.41283333 209.936619 1.41283333 209.936619 0.760666667 196.588557 0.760666667"></polyline>
                <polyline id="Fill-23" stroke="#FFFFFF" points="220.519108 0.760666667 220.519108 20.1594167 221.171685 20.1594167 221.171685 1.33116667 221.253403 1.33116667 229.572302 20.1594167 230.415165 20.1594167 238.734064 1.33116667 238.815782 1.33116667 238.815782 20.1594167 239.468359 20.1594167 239.468359 0.760666667 238.271773 0.760666667 230.034593 19.453 229.980308 19.453 221.71511 0.760666667 220.519108 0.760666667"></polyline>
                <path d="M256.68402,0 C254.780573,0 253.258282,0.380333333 252.06228,1.141 C250.675407,1.98333333 249.99598,3.23283333 249.99598,4.89008333 C249.99598,6.35716667 250.730275,7.52558333 252.225132,8.3405 C252.931993,8.72083333 254.427434,9.23708333 256.68402,9.835 C258.913172,10.4055 260.462896,10.9491667 261.30576,11.4654167 C262.692048,12.2803333 263.39891,13.4755833 263.39891,14.9969167 C263.39891,16.3555 262.773767,17.4696667 261.577181,18.2845833 C260.353744,19.0995 258.804604,19.50725 256.901156,19.50725 C254.998293,19.50725 253.476002,19.0184167 252.334284,18.0401667 C251.083414,16.9534167 250.376553,15.4046667 250.2137,13.3670833 L249.587974,13.3670833 C249.75141,15.62225 250.512555,17.33375 251.871993,18.529 C253.12228,19.61575 254.808007,20.1594167 256.92859,20.1594167 C258.967456,20.1594167 260.653183,19.6974167 261.957753,18.82825 C263.344626,17.8774167 264.051487,16.5999167 264.051487,14.9969167 C264.051487,13.2585833 263.262907,11.9 261.740617,10.976 C260.816035,10.3786667 259.157742,9.78075 256.792588,9.18283333 C254.780573,8.63975 253.448568,8.20516667 252.795991,7.87908333 C251.355419,7.14525 250.648557,6.14016667 250.648557,4.89008333 C250.648557,3.47725 251.219416,2.41791667 252.388568,1.68408333 C253.448568,0.977666667 254.889725,0.651583333 256.68402,0.651583333 C258.532599,0.651583333 260.000606,1.11358333 261.08804,2.09183333 C262.14804,3.04266667 262.773767,4.37383333 262.936619,6.11275 L263.589196,6.11275 C263.426344,4.21108333 262.719482,2.71658333 261.522896,1.62983333 C260.326894,0.543083333 258.695452,0 256.68402,0" id="Fill-24" stroke="#FFFFFF"></path>
            </g>
        </g>
    </g>
</svg>